<svg width="16" height="16" viewBox="0 0 16 16" fill="none" xmlns="http://www.w3.org/2000/svg">
<path d="M16 3.043a6.86 6.86 0 01-1.943.533 3.31 3.31 0 001.443-1.822 6.615 6.615 0 01-2.084.796 3.287 3.287 0 00-5.61 2.99A9.344 9.344 0 01.558 2.187a3.285 3.285 0 001.016 4.393 3.283 3.283 0 01-1.487-.41v.04a3.288 3.288 0 002.633 3.22 3.307 3.307 0 01-1.481.057 3.287 3.287 0 003.069 2.28A6.604 6.604 0 010 12.944a9.28 9.28 0 005.032 1.47c6.038 0 9.34-5.002 9.34-9.34 0-.142-.004-.285-.011-.425A6.633 6.633 0 0016 3.044z" fill="white"/>
</svg>
