<svg xmlns="http://www.w3.org/2000/svg" viewBox="0 0 24 24" fill="none" width="16" height="16">
    <path fill="white" d="M12 0C5.372 0 0 5.372 0 12s5.372 12 12 12 12-5.372 12-12S18.628 0 12 0zm5.409 17.59c-.732-.51-4.37-3.065-4.97-3.415-.58-.34-1.07-.28-1.53.03s-2.44 1.29-2.97 1.56c-.52.25-.97.16-1.37-.02-.35-.19-1.22-.76-2.34-1.54-.3-.21-.58-.36-.82-.47-.24-.1-.45-.11-.61-.09-.15.02-.32.04-.51.07-.2.03-.44.07-.7.14-.26.07-.6.17-1.01.34-.38.17-.72.37-.99.58-.28.2-.51.4-.69.57-.19.18-.34.33-.45.46-.1.13-.15.22-.15.27 0 .04-.02.07-.06.1s-.12.05-.2.05c-.08 0-.2-.02-.36-.07-.14-.04-.29-.09-.45-.14-.16-.05-.32-.09-.49-.13-.18-.04-.38-.07-.6-.07-.4 0-.75.09-1.06.28-.3.19-.56.42-.78.69-.21.28-.37.57-.48.89-.11.32-.17.63-.17.94 0 .55.12 1.06.36 1.52.23.46.56.87.97 1.23.4.36.89.64 1.46.83.56.2 1.14.29 1.75.29.7 0 1.36-.13 1.98-.39.62-.26 1.16-.61 1.62-1.04.47-.43.85-.95 1.15-1.57.3-.62.45-1.29.45-2 0-.83-.19-1.58-.58-2.25zM15.36 11.47c-.22-.1-.47-.17-.75-.2-.29-.04-.57-.04-.85.02-.28.05-.54.13-.78.24-.24.12-.46.28-.65.48-.19.2-.34.43-.45.71-.11.28-.17.6-.17.97s.07.7.2 1.02c.13.31.31.6.56.84.25.24.55.44.9.61.34.18.7.29 1.07.35.37.07.73.05 1.07-.05.34-.11.67-.27.97-.5.3-.22.56-.49.78-.81.22-.31.4-.67.52-1.07.11-.41.17-.84.17-1.3 0-.57-.1-1.09-.31-1.56-.21-.47-.51-.88-.9-1.23z"/>
</svg>
