<svg width="16" height="16" viewBox="0 0 16 16" fill="none" xmlns="http://www.w3.org/2000/svg">
<path d="M7.999 0C3.582 0 0 3.582 0 7.999c0 3.52 2.285 6.508 5.466 7.565.4.07.547-.174.547-.385 0-.19-.007-.823-.013-1.494-2.226.482-2.695-1.067-2.695-1.067-.364-.922-.888-1.167-.888-1.167-.727-.5.055-.49.055-.49.803.057 1.226.825 1.226.825.714 1.224 1.872.871 2.328.666.073-.517.279-.872.507-1.073-1.78-.203-3.644-.89-3.644-3.964 0-.875.313-1.59.824-2.15-.083-.203-.36-1.018.079-2.121 0 0 .672-.215 2.2.823.64-.178 1.32-.267 2-.271.68.004 1.36.093 2 .27 1.525-1.037 2.196-.822 2.196-.822.44 1.103.162 1.918.08 2.122.513.561.824 1.275.824 2.15 0 3.081-1.868 3.758-3.652 3.958.288.247.54.737.54 1.484 0 1.07-.01 1.931-.01 2.198 0 .213.144.462.55.384C13.715 14.504 16 11.52 16 7.999 16 3.582 12.418 0 7.999 0z" fill="white"/>
</svg>
